HIERARCHY
ROOT Hips
{
	OFFSET 0.0000 0.0000 0.0000
	CHANNELS 6 Xposition Yposition Zposition Zrotation Xrotation Yrotation
	JOINT Ab
	{
		OFFSET -0.0000 8.0846 -0.0000
		CHANNELS 3 Zrotation Xrotation Yrotation
		JOINT Chest
		{
			OFFSET -0.0000 25.0068 -0.0000
			CHANNELS 3 Zrotation Xrotation Yrotation
			JOINT Neck
			{
				OFFSET -0.0000 25.0068 0.0000
				CHANNELS 3 Zrotation Xrotation Yrotation
				JOINT Head
				{
					OFFSET -0.0000 10.7556 0.0000
					CHANNELS 3 Zrotation Xrotation Yrotation
					End Site
					{
						OFFSET -0.0000 16.6222 0.0000
					}
				}
			}
			JOINT LeftCollar
			{
				OFFSET -0.0000 25.0068 0.0000
				CHANNELS 3 Zrotation Xrotation Yrotation
				JOINT LeftShoulder
				{
					OFFSET 19.5556 -0.0000 0.0000
					CHANNELS 3 Zrotation Xrotation Yrotation
					JOINT LeftElbow
					{
						OFFSET 27.1828 0.0000 0.0000
						CHANNELS 3 Zrotation Xrotation Yrotation
						JOINT LeftWrist
						{
							OFFSET 23.3157 0.0000 0.0000
							CHANNELS 3 Zrotation Xrotation Yrotation
							End Site
							{
								OFFSET 0.0000 -14.6667 0.0000
							}
						}
					}
				}
			}
			JOINT RightCollar
			{
				OFFSET -0.0000 25.0068 0.0000
				CHANNELS 3 Zrotation Xrotation Yrotation
				JOINT RightShoulder
				{
					OFFSET -19.5556 0.0000 0.0000
					CHANNELS 3 Zrotation Xrotation Yrotation
					JOINT RightElbow
					{
						OFFSET -27.1828 0.0000 0.0000
						CHANNELS 3 Zrotation Xrotation Yrotation
						JOINT RightWrist
						{
							OFFSET -23.3157 0.0000 0.0000
							CHANNELS 3 Zrotation Xrotation Yrotation
							End Site
							{
								OFFSET -0.0000 -14.6667 0.0000
							}
						}
					}
				}
			}
		}
	}
	JOINT LeftHip
	{
		OFFSET 11.7333 0.0000 0.0000
		CHANNELS 3 Zrotation Xrotation Yrotation
		JOINT LeftKnee
		{
			OFFSET -0.0000 -40.8688 0.0000
			CHANNELS 3 Zrotation Xrotation Yrotation
			JOINT LeftAnkle
			{
				OFFSET -0.0000 -44.4337 0.0000
				CHANNELS 3 Zrotation Xrotation Yrotation
				End Site
				{
					OFFSET -0.0000 -4.8889 16.6222
				}
			}
		}
	}
	JOINT RightHip
	{
		OFFSET -11.7333 0.0000 0.0000
		CHANNELS 3 Zrotation Xrotation Yrotation
		JOINT RightKnee
		{
			OFFSET -0.0000 -40.8688 0.0000
			CHANNELS 3 Zrotation Xrotation Yrotation
			JOINT RightAnkle
			{
				OFFSET -0.0000 -44.4337 0.0000
				CHANNELS 3 Zrotation Xrotation Yrotation
				End Site
				{
					OFFSET -0.0000 -4.8889 16.6222
				}
			}
		}
	}
}
MOTION
Frames: 17
Frame Time: 0.010000
-3.8896 88.8664 190.7896 2.5992 359.5107 175.9720 1.6330 358.9192 358.4660 358.3048 12.6163 358.6388 2.5299 349.7196 0.8142 1.6070 16.2738 0.3470 339.2603 358.5780 7.7410 301.3242 31.3085 353.0116 16.8434 354.3607 323.2307 81.6854 1.7290 341.6396 22.3871 359.3767 356.8018 58.7350 43.0273 10.5917 338.0821 354.2973 28.8324 279.7237 353.6151 19.5165 1.1257 356.8469 356.2733 358.6730 10.9732 359.3059 0.8615 353.0654 21.5262 2.0555 351.5066 359.0192 359.4391 17.9086 7.8479 357.6895 346.1811 338.6875 
-3.9305 88.8680 190.7914 2.6071 359.4674 176.0185 1.6146 358.9021 358.4600 358.3206 12.6202 358.6307 2.5682 349.7657 0.7008 1.4681 16.2502 0.2556 339.2549 358.5735 7.7647 301.3750 31.6036 352.9567 16.9676 354.3088 323.2820 81.6492 1.6963 341.8141 22.3594 359.3558 356.7634 58.7386 43.0511 10.6000 337.9957 354.2900 28.8442 279.8022 353.5137 19.4481 1.1129 356.7723 356.2469 358.6682 11.0112 359.2923 0.9284 353.0941 21.5239 2.0297 351.4702 358.9818 359.4443 17.8977 7.8218 357.6872 346.1937 338.7109 
-3.9772 88.8679 190.7818 2.6038 359.4645 176.0261 1.5839 358.9146 358.4749 358.3412 12.6383 358.6448 2.5703 349.7540 0.6618 1.4475 16.2829 0.2175 339.2364 358.5718 7.8200 301.4124 31.8078 352.8789 17.0524 354.2895 323.3332 81.6297 1.6770 341.9421 22.3402 359.3715 356.7762 58.7074 42.9473 10.5957 337.9985 354.3106 28.6699 279.8408 352.8590 19.0215 1.0781 356.7554 356.2590 358.6664 11.0444 359.2874 0.9197 353.0521 21.5072 1.9957 351.4783 358.9930 359.4424 17.8810 7.8027 357.6323 346.1720 338.6864 
-4.0234 88.8694 190.7731 2.6064 359.4579 176.0229 1.5692 358.9343 358.4888 358.3403 12.6342 358.6591 2.5861 349.7801 0.6251 1.4249 16.2741 0.1832 339.2452 358.5968 7.7608 301.3178 31.5233 352.9445 16.8710 354.3787 323.2157 81.6963 1.7373 341.7377 22.3409 359.3568 356.7648 58.6714 42.8954 10.5949 338.1863 354.3804 28.7852 279.5409 352.9943 19.8005 1.0541 356.7400 356.2573 358.6562 11.0710 359.2919 1.0277 353.0653 21.5235 1.9717 351.4868 359.0536 359.4523 17.8616 7.7345 357.9379 346.0511 338.6569 
-4.0737 88.8705 190.7639 2.6072 359.4504 176.0248 1.5627 358.9581 358.4917 358.3212 12.6182 358.6635 2.6171 349.8333 0.5784 1.3578 16.2493 0.1460 339.2708 358.5829 7.7092 301.2103 31.3454 353.0420 16.8032 354.4029 323.0956 81.7113 1.7592 341.5996 22.3435 359.3524 356.7575 58.6444 42.8754 10.5899 338.5022 354.4474 29.0234 279.1079 353.5602 21.0507 1.0244 356.7213 356.3120 358.6602 11.1023 359.2335 0.9809 353.0173 21.5154 1.9417 351.4931 359.1011 359.4628 17.8421 7.6610 357.8361 346.1611 338.7883 
-4.1258 88.8707 190.7488 2.6140 359.4678 176.0310 1.5523 358.9971 358.4969 358.3157 12.6193 358.6698 2.6610 349.8627 0.5558 1.2530 16.2379 0.1154 339.2774 358.5918 7.6911 301.1580 31.2839 353.0890 16.7157 354.4172 323.0425 81.7446 1.7590 341.5050 22.3394 359.3574 356.7657 58.6254 42.8458 10.5803 338.5350 354.4060 29.0683 279.1816 353.5754 21.1320 0.9987 356.7338 356.3584 358.6599 11.1291 359.1667 1.0287 353.0016 21.5345 1.9140 351.5312 359.1387 359.4710 17.8176 7.6100 357.8019 346.1642 338.7914 
-4.1847 88.8697 190.7357 2.6168 359.4699 176.0268 1.5536 359.0273 358.5045 358.2898 12.6090 358.6805 2.6629 349.9090 0.4993 1.2114 16.2214 0.0859 339.2830 358.5972 7.6952 301.1267 31.2981 353.1120 16.7445 354.3656 322.8656 81.6869 2.0106 341.7662 22.3381 359.3740 356.7879 58.6203 42.8022 10.5539 338.5481 354.3798 29.1093 279.2229 353.5730 21.1891 0.9666 356.7378 356.3501 358.6494 11.1395 359.1591 1.0343 352.9734 21.5674 1.8796 351.5415 359.1687 359.4741 17.8102 7.5763 357.7325 346.1731 338.7775 
-4.2461 88.8690 190.7234 2.6227 359.4589 176.0220 1.5486 359.0405 358.5181 358.2755 12.6099 358.6959 2.6329 349.9404 0.4386 1.2256 16.2239 0.0347 339.2923 358.5962 7.6683 301.0490 31.1614 353.1617 16.7198 354.3436 322.6326 81.6385 2.3112 341.9705 22.3262 359.3729 356.8012 58.6194 42.7839 10.5289 338.5062 354.3495 29.1599 279.2900 353.5815 21.1899 0.9367 356.7331 356.3370 358.6376 11.1394 359.1736 1.0275 352.9511 21.5856 1.8503 351.5343 359.1964 359.4697 17.8117 7.5455 357.8321 346.1590 338.8048 
-4.3111 88.8683 190.7090 2.6318 359.4525 176.0253 1.5426 359.0558 358.5293 358.2692 12.6137 358.7097 2.6056 349.9650 0.3833 1.2309 16.2311 0.0034 339.2895 358.5979 7.6944 301.0198 31.2658 353.1295 16.7476 354.3161 322.6723 81.6188 2.2756 341.9875 22.3067 359.3645 356.8071 58.6138 42.8079 10.5195 338.4455 354.3422 29.1611 279.3298 353.5641 21.0884 0.9072 356.7388 356.3155 358.6250 11.1331 359.1827 1.1273 352.9771 21.5793 1.8171 351.5383 359.2389 359.4727 17.8226 7.4934 357.9944 346.1283 338.8652 
-4.3814 88.8660 190.6946 2.6421 359.4479 176.0219 1.5521 359.0747 358.5448 358.2398 12.6139 358.7276 2.6036 349.9938 0.3510 1.2136 16.2434 359.9805 339.2864 358.5754 7.7813 301.0435 31.6439 353.0388 16.9537 354.2064 322.7729 81.5547 2.2390 342.1945 22.2945 359.3713 356.8170 58.5929 42.8556 10.5319 338.4253 354.3365 29.1007 279.3646 353.4998 20.9722 0.8747 356.7437 356.3198 358.6160 11.1355 359.1634 1.1498 352.9697 21.6073 1.7784 351.5414 359.2729 359.4811 17.8295 7.4673 358.0068 346.1286 338.8801 
-4.4536 88.8648 190.6805 2.6564 359.4445 176.0134 1.5591 359.0881 358.5603 358.2164 12.6342 358.7464 2.6288 350.0184 0.3244 1.1445 16.2461 359.9389 339.2862 358.5722 7.8021 301.0208 31.6971 353.0177 16.9349 354.2416 322.7904 81.6068 2.2171 342.1944 22.2922 359.3765 356.8209 58.5493 42.8419 10.5367 338.3849 354.3205 29.1534 279.4306 353.5088 20.9478 0.8415 356.7543 356.3083 358.6126 11.1299 359.1711 1.2252 352.9757 21.6105 1.7504 351.5398 359.2822 359.4708 17.8323 7.4901 358.0763 346.1117 338.8778 
-4.5274 88.8642 190.6736 2.6801 359.4217 175.9988 1.5550 359.0956 358.5812 358.2271 12.6379 358.7655 2.6716 350.0859 0.2599 0.9481 16.2352 359.8862 339.2704 358.5643 7.8480 301.0270 31.8340 352.9569 16.9871 354.2392 322.8122 81.5875 2.2093 342.2849 22.2703 359.3697 356.8251 58.4899 42.9171 10.5906 338.3312 354.3042 29.0990 279.3884 353.4955 20.8377 0.8217 356.7387 356.3093 358.6043 11.1309 359.1605 1.3863 352.9796 21.6831 1.7313 351.5102 359.3231 359.4729 17.8446 7.4538 358.0719 346.1156 338.8906 
-4.6048 88.8637 190.6634 2.7059 359.4105 176.0004 1.5830 359.1457 358.5796 358.1817 12.5720 358.7685 2.6982 350.2081 0.1694 0.8298 16.2212 359.8280 339.2699 358.5524 7.8765 301.0349 32.0557 352.9615 17.0680 354.2047 322.8696 81.6185 2.1483 342.4230 22.2942 359.3864 356.8290 58.4505 42.8558 10.5664 338.4205 354.3260 29.2016 279.0767 353.9777 20.8630 0.7961 356.7297 356.3150 358.6079 11.1331 359.1472 1.2476 352.9323 21.6587 1.7103 351.4992 359.3215 359.4727 17.8588 7.4062 358.0263 346.1038 338.9271 
-4.6864 88.8643 190.6506 2.7171 359.3944 175.9789 1.5823 359.1523 358.5873 358.1748 12.5896 358.7775 2.6577 350.2458 0.1179 0.7551 16.2242 359.8138 339.2576 358.5503 7.9544 301.0366 32.2231 352.8944 16.9221 354.3081 322.9734 82.6467 1.8945 342.8435 22.2779 359.3584 356.8606 58.4224 42.8209 10.5456 338.3771 354.2659 29.2946 279.1131 354.0338 20.9044 0.7737 356.7419 356.2330 358.5490 11.1023 359.2108 1.2636 352.9486 21.6957 1.6725 351.4852 359.3579 359.4756 17.8578 7.3728 358.2248 346.0814 338.9814 
-4.7704 88.8634 190.6281 2.7354 359.4202 175.9444 1.5908 359.2059 358.6003 358.1273 12.5738 358.7967 2.6552 350.3015 0.1324 0.8004 16.2535 359.8113 339.2770 358.5539 7.9745 300.9534 32.0509 352.8965 16.8160 354.3608 322.9367 82.5744 1.9249 342.6231 22.2830 359.3919 356.9084 58.4295 42.7452 10.4932 338.4228 354.2883 29.3207 279.2471 353.9518 20.8990 0.7373 356.8053 356.2209 358.5404 11.0660 359.2135 1.3317 352.9596 21.7404 1.6404 351.5254 359.4185 359.4754 17.8409 7.3762 358.2434 346.0804 338.9610 
-4.8575 88.8627 190.6124 2.7565 359.4149 175.9037 1.5826 359.2250 358.6259 358.1258 12.5914 358.8236 2.6341 350.2976 0.1582 0.8207 16.3007 359.7964 339.2547 358.5286 8.0365 300.9768 32.2384 352.8508 16.8631 354.3207 322.9265 82.6075 1.9224 342.7296 22.2599 359.4050 356.9190 58.3772 42.8211 10.5621 338.3191 354.2494 29.2605 279.2989 353.9324 20.7682 0.7038 356.8246 356.2331 358.5335 11.0454 359.2372 1.3855 352.9617 21.7460 1.6153 351.5208 359.4936 359.4751 17.8446 7.3555 358.2370 346.0919 338.9509 
-4.9483 88.8624 190.5965 2.7719 359.3985 175.8727 1.5735 359.2283 358.6489 358.1086 12.6188 358.8485 2.6843 350.3454 0.1078 0.6764 16.2878 359.7760 339.2579 358.5243 8.0544 300.9765 32.3513 352.8293 16.8676 354.3078 322.9509 82.6125 1.8691 342.7854 22.2595 359.3856 356.8913 58.3014 42.8305 10.6155 338.2637 354.2538 29.3038 279.3426 353.9064 20.6902 0.6594 356.8222 356.2598 358.5387 11.0480 359.2230 1.4580 352.9430 21.7566 1.5792 351.5197 359.5930 359.4892 17.8174 7.2742 358.3050 346.1038 338.9781 
